<svg width="33" height="33" viewBox="0 0 33 33" fill="none" xmlns="http://www.w3.org/2000/svg">
<path d="M24.5184 26.0469L25.5657 25.0066C30.4112 25.1649 30.4856 24.995 30.6986 24.4969L32.0298 21.2561L32.1287 20.9489L32.0205 20.6801C31.9635 20.5382 31.7878 20.1146 28.7623 17.2299V15.7125C32.2532 12.3495 32.1788 12.1772 31.9798 11.685L30.6544 8.41047C30.4554 7.9194 30.3797 7.7274 25.5692 7.85889L24.5219 6.77668C24.63 5.18258 24.575 3.58161 24.3578 1.99868L24.2228 1.69264L20.7621 0.179878C20.2524 -0.0528544 20.0732 -0.136638 16.8056 3.42184L15.3371 3.39973C11.9729 -0.19133 11.8135 -0.126165 11.3096 0.0774758L8.09211 1.37845C7.58825 1.58209 7.4102 1.65424 7.6057 6.54162L6.56655 7.57728C1.72338 7.41902 1.64891 7.59125 1.43829 8.08697L0.10473 11.3289L0 11.6396L0.109384 11.9096C0.166404 12.0492 0.335135 12.4682 3.36764 15.3564V16.8691C-0.123348 20.2321 -0.0477101 20.4043 0.15244 20.8977L1.47669 24.1758C1.67917 24.6773 1.75131 24.8553 6.56073 24.7297L7.60803 25.8177C7.49947 27.4093 7.55289 29.0079 7.76745 30.5887L7.90243 30.8971L11.3853 32.4192C11.8915 32.6309 12.0672 32.7066 15.3254 29.1609L16.794 29.1795C20.1628 32.7752 20.335 32.7054 20.8272 32.5064L24.0378 31.2089C24.5451 31.0076 24.722 30.9366 24.5184 26.0469ZM10.7197 18.4552C10.3136 17.394 10.23 16.2365 10.4793 15.128C10.7287 14.0194 11.2999 13.0092 12.1212 12.2241C12.9425 11.439 13.9775 10.9139 15.0961 10.7148C16.2148 10.5157 17.3673 10.6514 18.4091 11.1048C19.451 11.5583 20.3356 12.3093 20.9522 13.2637C21.5688 14.2181 21.8897 15.3334 21.8748 16.4695C21.8599 17.6056 21.5098 18.7121 20.8684 19.65C20.227 20.5878 19.3229 21.3154 18.2695 21.7414C16.8323 22.3034 15.231 22.2732 13.816 21.6573C12.4011 21.0414 11.2877 19.89 10.7197 18.4552Z" fill="#B5B5B5"/>
</svg>
